<?xml version="1.0" encoding="UTF-8" standalone="no"?>
<!DOCTYPE svg PUBLIC "-//W3C//DTD SVG 1.1//EN" "http://www.w3.org/Graphics/SVG/1.1/DTD/svg11.dtd">
<svg width="100%" height="100%" viewBox="0 0 500 500" version="1.1" xmlns="http://www.w3.org/2000/svg" xmlns:xlink="http://www.w3.org/1999/xlink" xml:space="preserve" xmlns:serif="http://www.serif.com/" style="fill-rule:evenodd;clip-rule:evenodd;stroke-linecap:round;stroke-linejoin:round;stroke-miterlimit:1.5;">
    <g id="logo" transform="matrix(1,0,0,1,0,-63.763)">
        <g transform="matrix(1,0,0,1,3.80434,-39.0112)">
            <g transform="matrix(0.960883,0.276955,-0.276955,0.960883,87.2574,2.44333)">
                <text x="34.979px" y="310.12px" style="font-family:'Audiowide-Regular', 'Audiowide';font-size:54.167px;">B</text>
            </g>
            <g transform="matrix(0.986595,0.163188,-0.163188,0.986595,53.5939,-8.27116)">
                <text x="77.142px" y="322.08px" style="font-family:'Audiowide-Regular', 'Audiowide';font-size:54.167px;">R</text>
            </g>
            <g transform="matrix(0.994761,0.102223,-0.102223,0.994761,34.3002,-10.6873)">
                <text x="121.425px" y="329.319px" style="font-family:'Audiowide-Regular', 'Audiowide';font-size:54.167px;">E</text>
            </g>
            <g transform="matrix(0.998399,0.0565582,-0.0565582,0.998399,19.1226,-8.6327)">
                <text x="162.073px" y="333.519px" style="font-family:'Audiowide-Regular', 'Audiowide';font-size:54.167px;">A</text>
            </g>
            <g transform="matrix(0.999857,0.0168978,-0.0168978,0.999857,5.70718,-3.45375)">
                <text x="207.229px" y="335.995px" style="font-family:'Audiowide-Regular', 'Audiowide';font-size:54.167px;">T</text>
            </g>
            <g transform="matrix(0.99979,-0.0204851,0.0204851,0.99979,-6.84609,5.12102)">
                <text x="246.538px" y="336.723px" style="font-family:'Audiowide-Regular', 'Audiowide';font-size:54.167px;">H</text>
            </g>
            <g transform="matrix(0.998052,-0.0623902,0.0623902,0.998052,-20.3785,18.9078)">
                <text x="292.573px" y="335.765px" style="font-family:'Audiowide-Regular', 'Audiowide';font-size:54.167px;">L</text>
            </g>
            <g transform="matrix(0.994357,-0.106082,0.106082,0.994357,-33.4908,37.1232)">
                <text x="332.216px" y="333.378px" style="font-family:'Audiowide-Regular', 'Audiowide';font-size:54.167px;">E</text>
            </g>
            <g transform="matrix(0.98594,-0.167101,0.167101,0.98594,-49.7665,66.9193)">
                <text x="372.773px" y="329.188px" style="font-family:'Audiowide-Regular', 'Audiowide';font-size:54.167px;">S</text>
            </g>
            <g transform="matrix(0.961232,-0.275741,0.275741,0.961232,-72.8511,126.784)">
                <text x="414.457px" y="322.472px" style="font-family:'Audiowide-Regular', 'Audiowide';font-size:54.167px;">S</text>
            </g>
        </g>
        <g transform="matrix(1,0,0,1,-0.505636,-3.96898)">
            <path d="M208.243,320.972C208.243,325.193 226.954,328.62 250,328.62C270.492,328.62 287.556,325.911 291.087,322.342L337.759,467.186C329.969,459.621 293.615,453.891 250,453.891C203.123,453.891 164.633,460.511 160.981,468.913L208.243,320.972Z"/>
        </g>
        <g transform="matrix(0.943166,0,0,0.801621,9.37926,61.2224)">
            <ellipse cx="253.916" cy="320.972" rx="41.757" ry="7.649" style="stroke:black;stroke-width:4.76px;"/>
        </g>
        <g transform="matrix(1,0,0,1,64.2964,-3.96898)">
            <path d="M208.243,320.972L160.893,469.188" style="fill:none;stroke:black;stroke-width:4.17px;"/>
        </g>
        <g transform="matrix(1,0,0,1,-65.8269,-3.96898)">
            <path d="M290.712,321.178L338.671,470.015" style="fill:none;stroke:black;stroke-width:4.17px;"/>
        </g>
        <g transform="matrix(0.907611,0,0,0.922228,13.7167,32.1778)">
            <ellipse cx="259.084" cy="470.222" rx="95.71" ry="16.331" style="stroke:black;stroke-width:4.55px;"/>
        </g>
        <g transform="matrix(0.692085,0,0,0.560231,77.7647,130.337)">
            <path d="M411.391,296.085C404.977,308.584 334.703,318.442 249.078,318.442C160.599,318.442 88.513,307.916 86.338,294.827C118.917,302.959 180.726,308.453 251.548,308.453C318.654,308.453 377.668,303.52 411.391,296.085Z"/>
        </g>
        <g transform="matrix(0.986657,0,0,1.01262,5.89336,3.3779)">
            <path d="M125.938,240.623C127.987,230.223 131.403,220.288 135.997,211.001C166.982,207.541 208.401,205.426 253.876,205.426C295.459,205.426 333.651,207.195 363.574,210.143C368.525,219.952 372.155,230.496 374.242,241.558C343.004,245.185 300.579,247.416 253.876,247.416C203.282,247.416 157.708,244.798 125.938,240.623Z"/>
        </g>
        <g transform="matrix(1,0,0,1,180.177,-5.673)">
            <circle cx="159.836" cy="239.008" r="6.827" style="fill:white;stroke:white;stroke-width:4.17px;"/>
        </g>
        <g transform="matrix(1,0,0,1,135.47,-2.11679)">
            <circle cx="159.836" cy="239.008" r="6.827" style="fill:white;stroke:white;stroke-width:4.17px;"/>
        </g>
        <g transform="matrix(1,0,0,1,90.1641,-1.16847)">
            <circle cx="159.836" cy="239.008" r="6.827" style="fill:white;stroke:white;stroke-width:4.17px;"/>
        </g>
        <g transform="matrix(1,0,0,1,45.0368,-1.87971)">
            <circle cx="159.836" cy="239.008" r="6.827" style="fill:white;stroke:white;stroke-width:4.17px;"/>
        </g>
        <g transform="matrix(0.99008,0,0,1.02497,5.03686,1.62988)">
            <path d="M135.997,211.001C156.332,169.895 199.76,141.473 250,141.473C299.89,141.473 343.062,169.5 363.574,210.143C333.651,207.195 295.459,205.426 253.876,205.426C208.401,205.426 166.982,207.541 135.997,211.001Z"/>
        </g>
        <g transform="matrix(1,0,0,1,0.296351,-5.84234)">
            <circle cx="159.836" cy="239.008" r="6.827" style="fill:white;stroke:white;stroke-width:4.17px;"/>
        </g>
    </g>
    <g transform="matrix(1.01053,0.384384,-0.384384,1.01053,136.054,-126.487)">
        <circle cx="252.805" cy="323.174" r="4.796" style="fill:white;stroke:white;stroke-width:3.85px;"/>
    </g>
    <g transform="matrix(0.616178,0.234381,-0.234381,0.616178,175.961,42.1179)">
        <path d="M249.443,347.591C250.33,349.941 249.143,352.569 246.793,353.456C244.444,354.343 241.816,353.156 240.928,350.807C238.391,344.088 240.173,337.147 243.709,331.152C248.337,323.303 255.861,317.212 257.206,316.13C259.163,314.556 262.03,314.868 263.604,316.825C265.178,318.782 264.866,321.649 262.909,323.223C261.781,324.13 255.428,329.195 251.548,335.775C249.411,339.4 247.908,343.529 249.443,347.591Z" style="fill:white;"/>
    </g>
    <g transform="matrix(0.613173,0.233238,-0.260143,0.683907,186.903,15.4138)">
        <path d="M242.896,344.734C245.342,344.178 247.832,345.508 248.452,347.701C249.072,349.895 247.589,352.127 245.143,352.683C243.95,352.954 242.583,354.274 241.042,355.748C237.945,358.711 234.834,362.724 233.307,365.542C231.387,369.087 233.541,371.233 234.355,372.881C235.377,374.95 234.333,377.374 232.025,378.29C229.718,379.207 227.014,378.271 225.992,376.202C224.423,373.024 221.378,368.795 225.08,361.96C227.236,357.98 231.978,352.015 236.29,348.419C238.662,346.439 241.033,345.157 242.896,344.734Z" style="fill:white;"/>
    </g>
    <g transform="matrix(0.616178,0.234381,-0.234381,0.616178,175.961,42.1179)">
        <path d="M249.865,348.849C250.28,349.355 251.09,350.301 252.095,351.273C260.604,359.496 269.141,362.688 271.273,363.763C273.516,364.893 274.42,367.631 273.289,369.874C272.159,372.117 269.421,373.02 267.178,371.89C264.791,370.688 255.294,367.022 245.77,357.817C240.621,352.84 240.678,350.424 240.715,349.479L241.009,347.892C241.787,345.503 244.357,344.196 246.745,344.973C248.514,345.549 249.69,347.108 249.865,348.849Z" style="fill:white;"/>
    </g>
    <g transform="matrix(0.616178,0.234381,-0.234381,0.616178,175.961,42.1179)">
        <path d="M255.792,319.688C257.036,317.506 259.817,316.744 261.999,317.988C264.181,319.231 264.943,322.012 263.699,324.194C261.699,327.704 261.221,332.096 261.276,336.2C261.368,343.013 263.054,349.161 263.402,350.435C264.063,352.858 262.632,355.362 260.209,356.023C257.786,356.684 255.282,355.253 254.621,352.83C254.218,351.354 252.282,344.222 252.176,336.322C252.099,330.618 253.012,324.565 255.792,319.688Z" style="fill:white;"/>
    </g>
    <g transform="matrix(0.616178,0.234381,-0.234381,0.616178,175.961,42.1179)">
        <path d="M254.038,321.747C254.397,319.261 256.707,317.535 259.193,317.894C261.678,318.253 263.405,320.563 263.046,323.049C262.96,323.643 263.188,324.363 263.385,325.049C263.859,326.698 264.577,328.174 264.721,328.471C269.347,338.046 272.887,339.949 273.608,340.569C275.512,342.206 275.728,345.082 274.09,346.986C272.453,348.89 269.577,349.107 267.673,347.469C266.775,346.697 262.295,344.371 256.526,332.431C256.144,331.641 253.489,325.55 254.038,321.747Z" style="fill:white;"/>
    </g>
</svg>
